<?xml version="1.0" encoding="UTF-8" standalone="no"?>
<!-- Created with Inkscape (http://www.inkscape.org/) -->

<svg
   width="117.65mm"
   height="88.43mm"
   viewBox="0 0 117.65 88.43"
   version="1.1"
   id="svg1"
   inkscape:version="1.4.2 (ebf0e94, 2025-05-08)"
   sodipodi:docname="ZJ050NA-08C_display_front.svg"
   xmlns:inkscape="http://www.inkscape.org/namespaces/inkscape"
   xmlns:sodipodi="http://sodipodi.sourceforge.net/DTD/sodipodi-0.dtd"
   xmlns="http://www.w3.org/2000/svg"
   xmlns:svg="http://www.w3.org/2000/svg">
  <sodipodi:namedview
     id="namedview1"
     pagecolor="#ffffff"
     bordercolor="#000000"
     borderopacity="0.25"
     inkscape:showpageshadow="2"
     inkscape:pageopacity="0.0"
     inkscape:pagecheckerboard="0"
     inkscape:deskcolor="#d1d1d1"
     inkscape:document-units="mm"
     inkscape:zoom="1.2365039"
     inkscape:cx="194.49999"
     inkscape:cy="133.03638"
     inkscape:window-width="1920"
     inkscape:window-height="1094"
     inkscape:window-x="1909"
     inkscape:window-y="-11"
     inkscape:window-maximized="1"
     inkscape:current-layer="layer1" />
  <defs
     id="defs1">
    <clipPath
       clipPathUnits="userSpaceOnUse"
       id="clipPath288">
      <path
         d="M 2.24,2.56 V 1120.3199 H 792.15997 V 2.56 Z"
         clip-rule="evenodd"
         id="path288" />
    </clipPath>
    <clipPath
       clipPathUnits="userSpaceOnUse"
       id="clipPath290">
      <path
         d="M 2.24,2.56 V 1120.3199 H 792.15997 V 2.56 Z"
         clip-rule="evenodd"
         id="path290" />
    </clipPath>
    <clipPath
       clipPathUnits="userSpaceOnUse"
       id="clipPath292">
      <path
         d="M 2.24,2.56 V 1120.3199 H 792.15997 V 2.56 Z"
         clip-rule="evenodd"
         id="path292" />
    </clipPath>
    <clipPath
       clipPathUnits="userSpaceOnUse"
       id="clipPath294">
      <path
         d="M 2.24,2.56 V 1120.3199 H 792.15997 V 2.56 Z"
         clip-rule="evenodd"
         id="path294" />
    </clipPath>
    <clipPath
       clipPathUnits="userSpaceOnUse"
       id="clipPath296">
      <path
         d="M 2.24,2.56 V 1120.3199 H 792.15997 V 2.56 Z"
         clip-rule="evenodd"
         id="path296" />
    </clipPath>
    <clipPath
       clipPathUnits="userSpaceOnUse"
       id="clipPath298">
      <path
         d="M 2.24,2.56 V 1120.3199 H 792.15997 V 2.56 Z"
         clip-rule="evenodd"
         id="path298" />
    </clipPath>
    <clipPath
       clipPathUnits="userSpaceOnUse"
       id="clipPath300">
      <path
         d="M 2.24,2.56 V 1120.3199 H 792.15997 V 2.56 Z"
         clip-rule="evenodd"
         id="path300" />
    </clipPath>
    <clipPath
       clipPathUnits="userSpaceOnUse"
       id="clipPath302">
      <path
         d="M 2.24,2.56 V 1120.3199 H 792.15997 V 2.56 Z"
         clip-rule="evenodd"
         id="path302" />
    </clipPath>
    <clipPath
       clipPathUnits="userSpaceOnUse"
       id="clipPath2018">
      <path
         d="M 2.24,2.56 V 1120.3199 H 792.15997 V 2.56 Z"
         clip-rule="evenodd"
         id="path2018" />
    </clipPath>
    <clipPath
       clipPathUnits="userSpaceOnUse"
       id="clipPath2028">
      <path
         d="M 2.24,2.56 V 1120.3199 H 792.15997 V 2.56 Z"
         clip-rule="evenodd"
         id="path2028" />
    </clipPath>
    <clipPath
       clipPathUnits="userSpaceOnUse"
       id="clipPath2030">
      <path
         d="M 2.24,2.56 V 1120.3199 H 792.15997 V 2.56 Z"
         clip-rule="evenodd"
         id="path2030" />
    </clipPath>
    <clipPath
       clipPathUnits="userSpaceOnUse"
       id="clipPath2032">
      <path
         d="M 2.24,2.56 V 1120.3199 H 792.15997 V 2.56 Z"
         clip-rule="evenodd"
         id="path2032" />
    </clipPath>
    <clipPath
       clipPathUnits="userSpaceOnUse"
       id="clipPath2034">
      <path
         d="M 2.24,2.56 V 1120.3199 H 792.15997 V 2.56 Z"
         clip-rule="evenodd"
         id="path2034" />
    </clipPath>
    <clipPath
       clipPathUnits="userSpaceOnUse"
       id="clipPath2036">
      <path
         d="M 2.24,2.56 V 1120.3199 H 792.15997 V 2.56 Z"
         clip-rule="evenodd"
         id="path2036" />
    </clipPath>
    <clipPath
       clipPathUnits="userSpaceOnUse"
       id="clipPath2038">
      <path
         d="M 2.24,2.56 V 1120.3199 H 792.15997 V 2.56 Z"
         clip-rule="evenodd"
         id="path2038" />
    </clipPath>
    <clipPath
       clipPathUnits="userSpaceOnUse"
       id="clipPath2040">
      <path
         d="M 2.24,2.56 V 1120.3199 H 792.15997 V 2.56 Z"
         clip-rule="evenodd"
         id="path2040" />
    </clipPath>
    <clipPath
       clipPathUnits="userSpaceOnUse"
       id="clipPath2042">
      <path
         d="M 2.24,2.56 V 1120.3199 H 792.15997 V 2.56 Z"
         clip-rule="evenodd"
         id="path2042" />
    </clipPath>
    <clipPath
       clipPathUnits="userSpaceOnUse"
       id="clipPath2044">
      <path
         d="M 2.24,2.56 V 1120.3199 H 792.15997 V 2.56 Z"
         clip-rule="evenodd"
         id="path2044" />
    </clipPath>
    <clipPath
       clipPathUnits="userSpaceOnUse"
       id="clipPath2046">
      <path
         d="M 2.24,2.56 V 1120.3199 H 792.15997 V 2.56 Z"
         clip-rule="evenodd"
         id="path2046" />
    </clipPath>
    <clipPath
       clipPathUnits="userSpaceOnUse"
       id="clipPath2048">
      <path
         d="M 2.24,2.56 V 1120.3199 H 792.15997 V 2.56 Z"
         clip-rule="evenodd"
         id="path2048" />
    </clipPath>
    <clipPath
       clipPathUnits="userSpaceOnUse"
       id="clipPath2050">
      <path
         d="M 2.24,2.56 V 1120.3199 H 792.15997 V 2.56 Z"
         clip-rule="evenodd"
         id="path2050" />
    </clipPath>
    <clipPath
       clipPathUnits="userSpaceOnUse"
       id="clipPath2052">
      <path
         d="M 2.24,2.56 V 1120.3199 H 792.15997 V 2.56 Z"
         clip-rule="evenodd"
         id="path2052" />
    </clipPath>
    <clipPath
       clipPathUnits="userSpaceOnUse"
       id="clipPath2134">
      <path
         d="M 2.24,2.56 V 1120.3199 H 792.15997 V 2.56 Z"
         clip-rule="evenodd"
         id="path2134" />
    </clipPath>
    <clipPath
       clipPathUnits="userSpaceOnUse"
       id="clipPath2136">
      <path
         d="M 2.24,2.56 V 1120.3199 H 792.15997 V 2.56 Z"
         clip-rule="evenodd"
         id="path2136" />
    </clipPath>
    <clipPath
       clipPathUnits="userSpaceOnUse"
       id="clipPath2138">
      <path
         d="M 2.24,2.56 V 1120.3199 H 792.15997 V 2.56 Z"
         clip-rule="evenodd"
         id="path2138" />
    </clipPath>
    <clipPath
       clipPathUnits="userSpaceOnUse"
       id="clipPath2140">
      <path
         d="M 2.24,2.56 V 1120.3199 H 792.15997 V 2.56 Z"
         clip-rule="evenodd"
         id="path2140" />
    </clipPath>
    <clipPath
       clipPathUnits="userSpaceOnUse"
       id="clipPath2142">
      <path
         d="M 2.24,2.56 V 1120.3199 H 792.15997 V 2.56 Z"
         clip-rule="evenodd"
         id="path2142" />
    </clipPath>
    <clipPath
       clipPathUnits="userSpaceOnUse"
       id="clipPath2144">
      <path
         d="M 2.24,2.56 V 1120.3199 H 792.15997 V 2.56 Z"
         clip-rule="evenodd"
         id="path2144" />
    </clipPath>
    <clipPath
       clipPathUnits="userSpaceOnUse"
       id="clipPath2146">
      <path
         d="M 2.24,2.56 V 1120.3199 H 792.15997 V 2.56 Z"
         clip-rule="evenodd"
         id="path2146" />
    </clipPath>
    <clipPath
       clipPathUnits="userSpaceOnUse"
       id="clipPath2148">
      <path
         d="M 2.24,2.56 V 1120.3199 H 792.15997 V 2.56 Z"
         clip-rule="evenodd"
         id="path2148" />
    </clipPath>
    <clipPath
       clipPathUnits="userSpaceOnUse"
       id="clipPath2150">
      <path
         d="M 2.24,2.56 V 1120.3199 H 792.15997 V 2.56 Z"
         clip-rule="evenodd"
         id="path2150" />
    </clipPath>
    <clipPath
       clipPathUnits="userSpaceOnUse"
       id="clipPath2160">
      <path
         d="M 2.24,2.56 V 1120.3199 H 792.15997 V 2.56 Z"
         clip-rule="evenodd"
         id="path2160" />
    </clipPath>
    <clipPath
       clipPathUnits="userSpaceOnUse"
       id="clipPath2162">
      <path
         d="M 2.24,2.56 V 1120.3199 H 792.15997 V 2.56 Z"
         clip-rule="evenodd"
         id="path2162" />
    </clipPath>
    <clipPath
       clipPathUnits="userSpaceOnUse"
       id="clipPath2164">
      <path
         d="M 2.24,2.56 V 1120.3199 H 792.15997 V 2.56 Z"
         clip-rule="evenodd"
         id="path2164" />
    </clipPath>
    <clipPath
       clipPathUnits="userSpaceOnUse"
       id="clipPath2166">
      <path
         d="M 2.24,2.56 V 1120.3199 H 792.15997 V 2.56 Z"
         clip-rule="evenodd"
         id="path2166" />
    </clipPath>
    <clipPath
       clipPathUnits="userSpaceOnUse"
       id="clipPath2168">
      <path
         d="M 2.24,2.56 V 1120.3199 H 792.15997 V 2.56 Z"
         clip-rule="evenodd"
         id="path2168" />
    </clipPath>
    <clipPath
       clipPathUnits="userSpaceOnUse"
       id="clipPath2170">
      <path
         d="M 2.24,2.56 V 1120.3199 H 792.15997 V 2.56 Z"
         clip-rule="evenodd"
         id="path2170" />
    </clipPath>
    <clipPath
       clipPathUnits="userSpaceOnUse"
       id="clipPath2172">
      <path
         d="M 2.24,2.56 V 1120.3199 H 792.15997 V 2.56 Z"
         clip-rule="evenodd"
         id="path2172" />
    </clipPath>
    <clipPath
       clipPathUnits="userSpaceOnUse"
       id="clipPath2174">
      <path
         d="M 2.24,2.56 V 1120.3199 H 792.15997 V 2.56 Z"
         clip-rule="evenodd"
         id="path2174" />
    </clipPath>
    <clipPath
       clipPathUnits="userSpaceOnUse"
       id="clipPath2176">
      <path
         d="M 2.24,2.56 V 1120.3199 H 792.15997 V 2.56 Z"
         clip-rule="evenodd"
         id="path2176" />
    </clipPath>
    <clipPath
       clipPathUnits="userSpaceOnUse"
       id="clipPath2178">
      <path
         d="M 2.24,2.56 V 1120.3199 H 792.15997 V 2.56 Z"
         clip-rule="evenodd"
         id="path2178" />
    </clipPath>
    <clipPath
       clipPathUnits="userSpaceOnUse"
       id="clipPath2180">
      <path
         d="M 2.24,2.56 V 1120.3199 H 792.15997 V 2.56 Z"
         clip-rule="evenodd"
         id="path2180" />
    </clipPath>
    <clipPath
       clipPathUnits="userSpaceOnUse"
       id="clipPath2182">
      <path
         d="M 2.24,2.56 V 1120.3199 H 792.15997 V 2.56 Z"
         clip-rule="evenodd"
         id="path2182" />
    </clipPath>
    <clipPath
       clipPathUnits="userSpaceOnUse"
       id="clipPath2184">
      <path
         d="M 2.24,2.56 V 1120.3199 H 792.15997 V 2.56 Z"
         clip-rule="evenodd"
         id="path2184" />
    </clipPath>
    <clipPath
       clipPathUnits="userSpaceOnUse"
       id="clipPath2186">
      <path
         d="M 2.24,2.56 V 1120.3199 H 792.15997 V 2.56 Z"
         clip-rule="evenodd"
         id="path2186" />
    </clipPath>
    <clipPath
       clipPathUnits="userSpaceOnUse"
       id="clipPath2188">
      <path
         d="M 2.24,2.56 V 1120.3199 H 792.15997 V 2.56 Z"
         clip-rule="evenodd"
         id="path2188" />
    </clipPath>
    <clipPath
       clipPathUnits="userSpaceOnUse"
       id="clipPath2190">
      <path
         d="M 2.24,2.56 V 1120.3199 H 792.15997 V 2.56 Z"
         clip-rule="evenodd"
         id="path2190" />
    </clipPath>
    <clipPath
       clipPathUnits="userSpaceOnUse"
       id="clipPath2192">
      <path
         d="M 2.24,2.56 V 1120.3199 H 792.15997 V 2.56 Z"
         clip-rule="evenodd"
         id="path2192" />
    </clipPath>
    <clipPath
       clipPathUnits="userSpaceOnUse"
       id="clipPath2200">
      <path
         d="M 2.24,2.56 V 1120.3199 H 792.15997 V 2.56 Z"
         clip-rule="evenodd"
         id="path2200" />
    </clipPath>
    <clipPath
       clipPathUnits="userSpaceOnUse"
       id="clipPath2338">
      <path
         d="M 2.24,2.56 V 1120.3199 H 792.15997 V 2.56 Z"
         clip-rule="evenodd"
         id="path2338" />
    </clipPath>
    <clipPath
       clipPathUnits="userSpaceOnUse"
       id="clipPath2340">
      <path
         d="M 2.24,2.56 V 1120.3199 H 792.15997 V 2.56 Z"
         clip-rule="evenodd"
         id="path2340" />
    </clipPath>
    <clipPath
       clipPathUnits="userSpaceOnUse"
       id="clipPath2342">
      <path
         d="M 2.24,2.56 V 1120.3199 H 792.15997 V 2.56 Z"
         clip-rule="evenodd"
         id="path2342" />
    </clipPath>
    <clipPath
       clipPathUnits="userSpaceOnUse"
       id="clipPath2344">
      <path
         d="M 2.24,2.56 V 1120.3199 H 792.15997 V 2.56 Z"
         clip-rule="evenodd"
         id="path2344" />
    </clipPath>
    <clipPath
       clipPathUnits="userSpaceOnUse"
       id="clipPath2346">
      <path
         d="M 2.24,2.56 V 1120.3199 H 792.15997 V 2.56 Z"
         clip-rule="evenodd"
         id="path2346" />
    </clipPath>
    <clipPath
       clipPathUnits="userSpaceOnUse"
       id="clipPath2532">
      <path
         d="M 2.24,2.56 V 1120.3199 H 792.15997 V 2.56 Z"
         clip-rule="evenodd"
         id="path2532" />
    </clipPath>
    <clipPath
       clipPathUnits="userSpaceOnUse"
       id="clipPath2540">
      <path
         d="M 2.24,2.56 V 1120.3199 H 792.15997 V 2.56 Z"
         clip-rule="evenodd"
         id="path2540" />
    </clipPath>
    <clipPath
       clipPathUnits="userSpaceOnUse"
       id="clipPath2542">
      <path
         d="M 2.24,2.56 V 1120.3199 H 792.15997 V 2.56 Z"
         clip-rule="evenodd"
         id="path2542" />
    </clipPath>
    <clipPath
       clipPathUnits="userSpaceOnUse"
       id="clipPath2544">
      <path
         d="M 2.24,2.56 V 1120.3199 H 792.15997 V 2.56 Z"
         clip-rule="evenodd"
         id="path2544" />
    </clipPath>
    <clipPath
       clipPathUnits="userSpaceOnUse"
       id="clipPath2546">
      <path
         d="M 2.24,2.56 V 1120.3199 H 792.15997 V 2.56 Z"
         clip-rule="evenodd"
         id="path2546" />
    </clipPath>
    <clipPath
       clipPathUnits="userSpaceOnUse"
       id="clipPath2548">
      <path
         d="M 2.24,2.56 V 1120.3199 H 792.15997 V 2.56 Z"
         clip-rule="evenodd"
         id="path2548" />
    </clipPath>
    <clipPath
       clipPathUnits="userSpaceOnUse"
       id="clipPath2564">
      <path
         d="M 2.24,2.56 V 1120.3199 H 792.15997 V 2.56 Z"
         clip-rule="evenodd"
         id="path2564" />
    </clipPath>
    <clipPath
       clipPathUnits="userSpaceOnUse"
       id="clipPath2566">
      <path
         d="M 2.24,2.56 V 1120.3199 H 792.15997 V 2.56 Z"
         clip-rule="evenodd"
         id="path2566" />
    </clipPath>
    <clipPath
       clipPathUnits="userSpaceOnUse"
       id="clipPath2568">
      <path
         d="M 2.24,2.56 V 1120.3199 H 792.15997 V 2.56 Z"
         clip-rule="evenodd"
         id="path2568" />
    </clipPath>
    <clipPath
       clipPathUnits="userSpaceOnUse"
       id="clipPath2570">
      <path
         d="M 2.24,2.56 V 1120.3199 H 792.15997 V 2.56 Z"
         clip-rule="evenodd"
         id="path2570" />
    </clipPath>
    <clipPath
       clipPathUnits="userSpaceOnUse"
       id="clipPath2572">
      <path
         d="M 2.24,2.56 V 1120.3199 H 792.15997 V 2.56 Z"
         clip-rule="evenodd"
         id="path2572" />
    </clipPath>
    <clipPath
       clipPathUnits="userSpaceOnUse"
       id="clipPath2574">
      <path
         d="M 2.24,2.56 V 1120.3199 H 792.15997 V 2.56 Z"
         clip-rule="evenodd"
         id="path2574" />
    </clipPath>
    <clipPath
       clipPathUnits="userSpaceOnUse"
       id="clipPath2576">
      <path
         d="M 2.24,2.56 V 1120.3199 H 792.15997 V 2.56 Z"
         clip-rule="evenodd"
         id="path2576" />
    </clipPath>
    <clipPath
       clipPathUnits="userSpaceOnUse"
       id="clipPath2578">
      <path
         d="M 2.24,2.56 V 1120.3199 H 792.15997 V 2.56 Z"
         clip-rule="evenodd"
         id="path2578" />
    </clipPath>
    <clipPath
       clipPathUnits="userSpaceOnUse"
       id="clipPath2580">
      <path
         d="M 2.24,2.56 V 1120.3199 H 792.15997 V 2.56 Z"
         clip-rule="evenodd"
         id="path2580" />
    </clipPath>
    <clipPath
       clipPathUnits="userSpaceOnUse"
       id="clipPath2582">
      <path
         d="M 2.24,2.56 V 1120.3199 H 792.15997 V 2.56 Z"
         clip-rule="evenodd"
         id="path2582" />
    </clipPath>
    <clipPath
       clipPathUnits="userSpaceOnUse"
       id="clipPath2584">
      <path
         d="M 2.24,2.56 V 1120.3199 H 792.15997 V 2.56 Z"
         clip-rule="evenodd"
         id="path2584" />
    </clipPath>
    <clipPath
       clipPathUnits="userSpaceOnUse"
       id="clipPath2586">
      <path
         d="M 2.24,2.56 V 1120.3199 H 792.15997 V 2.56 Z"
         clip-rule="evenodd"
         id="path2586" />
    </clipPath>
    <clipPath
       clipPathUnits="userSpaceOnUse"
       id="clipPath2588">
      <path
         d="M 2.24,2.56 V 1120.3199 H 792.15997 V 2.56 Z"
         clip-rule="evenodd"
         id="path2588" />
    </clipPath>
    <clipPath
       clipPathUnits="userSpaceOnUse"
       id="clipPath2634">
      <path
         d="M 2.24,2.56 V 1120.3199 H 792.15997 V 2.56 Z"
         clip-rule="evenodd"
         id="path2634" />
    </clipPath>
    <clipPath
       clipPathUnits="userSpaceOnUse"
       id="clipPath2636">
      <path
         d="M 2.24,2.56 V 1120.3199 H 792.15997 V 2.56 Z"
         clip-rule="evenodd"
         id="path2636" />
    </clipPath>
    <clipPath
       clipPathUnits="userSpaceOnUse"
       id="clipPath2638">
      <path
         d="M 2.24,2.56 V 1120.3199 H 792.15997 V 2.56 Z"
         clip-rule="evenodd"
         id="path2638" />
    </clipPath>
    <clipPath
       clipPathUnits="userSpaceOnUse"
       id="clipPath2640">
      <path
         d="M 2.24,2.56 V 1120.3199 H 792.15997 V 2.56 Z"
         clip-rule="evenodd"
         id="path2640" />
    </clipPath>
    <clipPath
       clipPathUnits="userSpaceOnUse"
       id="clipPath2642">
      <path
         d="M 2.24,2.56 V 1120.3199 H 792.15997 V 2.56 Z"
         clip-rule="evenodd"
         id="path2642" />
    </clipPath>
    <clipPath
       clipPathUnits="userSpaceOnUse"
       id="clipPath2644">
      <path
         d="M 2.24,2.56 V 1120.3199 H 792.15997 V 2.56 Z"
         clip-rule="evenodd"
         id="path2644" />
    </clipPath>
    <clipPath
       clipPathUnits="userSpaceOnUse"
       id="clipPath2646">
      <path
         d="M 2.24,2.56 V 1120.3199 H 792.15997 V 2.56 Z"
         clip-rule="evenodd"
         id="path2646" />
    </clipPath>
    <clipPath
       clipPathUnits="userSpaceOnUse"
       id="clipPath2648">
      <path
         d="M 2.24,2.56 V 1120.3199 H 792.15997 V 2.56 Z"
         clip-rule="evenodd"
         id="path2648" />
    </clipPath>
    <clipPath
       clipPathUnits="userSpaceOnUse"
       id="clipPath2650">
      <path
         d="M 2.24,2.56 V 1120.3199 H 792.15997 V 2.56 Z"
         clip-rule="evenodd"
         id="path2650" />
    </clipPath>
    <clipPath
       clipPathUnits="userSpaceOnUse"
       id="clipPath2652">
      <path
         d="M 2.24,2.56 V 1120.3199 H 792.15997 V 2.56 Z"
         clip-rule="evenodd"
         id="path2652" />
    </clipPath>
    <clipPath
       clipPathUnits="userSpaceOnUse"
       id="clipPath2654">
      <path
         d="M 2.24,2.56 V 1120.3199 H 792.15997 V 2.56 Z"
         clip-rule="evenodd"
         id="path2654" />
    </clipPath>
    <clipPath
       clipPathUnits="userSpaceOnUse"
       id="clipPath2656">
      <path
         d="M 2.24,2.56 V 1120.3199 H 792.15997 V 2.56 Z"
         clip-rule="evenodd"
         id="path2656" />
    </clipPath>
    <clipPath
       clipPathUnits="userSpaceOnUse"
       id="clipPath2658">
      <path
         d="M 2.24,2.56 V 1120.3199 H 792.15997 V 2.56 Z"
         clip-rule="evenodd"
         id="path2658" />
    </clipPath>
    <clipPath
       clipPathUnits="userSpaceOnUse"
       id="clipPath2660">
      <path
         d="M 2.24,2.56 V 1120.3199 H 792.15997 V 2.56 Z"
         clip-rule="evenodd"
         id="path2660" />
    </clipPath>
    <clipPath
       clipPathUnits="userSpaceOnUse"
       id="clipPath2662">
      <path
         d="M 2.24,2.56 V 1120.3199 H 792.15997 V 2.56 Z"
         clip-rule="evenodd"
         id="path2662" />
    </clipPath>
    <clipPath
       clipPathUnits="userSpaceOnUse"
       id="clipPath2664">
      <path
         d="M 2.24,2.56 V 1120.3199 H 792.15997 V 2.56 Z"
         clip-rule="evenodd"
         id="path2664" />
    </clipPath>
    <clipPath
       clipPathUnits="userSpaceOnUse"
       id="clipPath2666">
      <path
         d="M 2.24,2.56 V 1120.3199 H 792.15997 V 2.56 Z"
         clip-rule="evenodd"
         id="path2666" />
    </clipPath>
    <clipPath
       clipPathUnits="userSpaceOnUse"
       id="clipPath2668">
      <path
         d="M 2.24,2.56 V 1120.3199 H 792.15997 V 2.56 Z"
         clip-rule="evenodd"
         id="path2668" />
    </clipPath>
    <clipPath
       clipPathUnits="userSpaceOnUse"
       id="clipPath2670">
      <path
         d="M 2.24,2.56 V 1120.3199 H 792.15997 V 2.56 Z"
         clip-rule="evenodd"
         id="path2670" />
    </clipPath>
    <clipPath
       clipPathUnits="userSpaceOnUse"
       id="clipPath5372">
      <path
         d="M 2.24,2.56 V 1120.3199 H 792.15997 V 2.56 Z"
         clip-rule="evenodd"
         id="path5372" />
    </clipPath>
  </defs>
  <g
     inkscape:label="Layer 1"
     inkscape:groupmode="layer"
     id="layer1">
    <path
       id="path295"
       d="m 301.92001,460.79999 c 0.18071,1.15578 0.9437,1.38032 1.91999,1.76001"
       style="fill:none;stroke:#000000;stroke-width:0.32;stroke-linecap:round;stroke-linejoin:round;stroke-miterlimit:10;stroke-dasharray:none;stroke-opacity:1"
       clip-path="url(#clipPath296)"
       transform="matrix(0,-0.53847145,-0.60460978,0,279.76505,250.97078)" />
    <path
       id="path297"
       d="m 464.16,462.56 c 0.89518,-0.34801 1.39192,-0.87895 1.76001,-1.76001"
       style="fill:none;stroke:#000000;stroke-width:0.32;stroke-linecap:round;stroke-linejoin:round;stroke-miterlimit:10;stroke-dasharray:none;stroke-opacity:1"
       clip-path="url(#clipPath298)"
       transform="matrix(0,-0.53847145,-0.60460978,0,279.76505,250.97078)" />
    <path
       id="path299"
       d="m 303.84,268.32001 c -0.97142,0.35777 -1.76119,0.6017 -1.91999,1.75998"
       style="fill:none;stroke:#000000;stroke-width:0.32;stroke-linecap:round;stroke-linejoin:round;stroke-miterlimit:10;stroke-dasharray:none;stroke-opacity:1"
       clip-path="url(#clipPath300)"
       transform="matrix(0,-0.53847145,-0.60460978,0,279.76505,250.97078)" />
    <path
       id="path301"
       d="m 465.92001,270.07999 c -0.34803,-0.89516 -0.87894,-1.39191 -1.76001,-1.75998"
       style="fill:none;stroke:#000000;stroke-width:0.32;stroke-linecap:round;stroke-linejoin:round;stroke-miterlimit:10;stroke-dasharray:none;stroke-opacity:1"
       clip-path="url(#clipPath302)"
       transform="matrix(0,-0.53847145,-0.60460978,0,279.76505,250.97078)" />
    <path
       id="path2017"
       d="m 303.84,462.56 c 53.44,0 106.88,0 160.32,0"
       style="fill:none;stroke:#000000;stroke-width:0.16;stroke-linecap:round;stroke-linejoin:round;stroke-miterlimit:10;stroke-dasharray:none;stroke-opacity:1"
       clip-path="url(#clipPath2018)"
       transform="matrix(0,-0.53847145,-0.60460978,0,279.76505,250.97078)" />
    <path
       id="path2027"
       d="m 306.23999,451.84 c 48.90667,0 97.81333,0 146.72,0"
       style="fill:none;stroke:#000000;stroke-width:0.16;stroke-linecap:round;stroke-linejoin:round;stroke-miterlimit:10;stroke-dasharray:none;stroke-opacity:1"
       clip-path="url(#clipPath2028)"
       transform="matrix(0,-0.53847145,-0.60460978,0,279.76505,250.97078)" />
    <path
       id="path2133"
       d="m 465.92001,338.23999 c 0,-22.72 0,-45.44 0,-68.16"
       style="fill:none;stroke:#000000;stroke-width:0.16;stroke-linecap:round;stroke-linejoin:round;stroke-miterlimit:10;stroke-dasharray:none;stroke-opacity:1"
       clip-path="url(#clipPath2134)"
       transform="matrix(0,-0.53847145,-0.60460978,0,279.76505,250.97078)" />
    <path
       id="path2135"
       d="m 465.92001,460.79999 c 0,-25.33333 0,-50.66667 0,-76"
       style="fill:none;stroke:#000000;stroke-width:0.16;stroke-linecap:round;stroke-linejoin:round;stroke-miterlimit:10;stroke-dasharray:none;stroke-opacity:1"
       clip-path="url(#clipPath2136)"
       transform="matrix(0,-0.53847145,-0.60460978,0,279.76505,250.97078)" />
    <path
       id="path2137"
       d="m 465.12,340 c 0,-0.58667 0,-1.17334 0,-1.76001"
       style="fill:none;stroke:#000000;stroke-width:0.16;stroke-linecap:round;stroke-linejoin:round;stroke-miterlimit:10;stroke-dasharray:none;stroke-opacity:1"
       clip-path="url(#clipPath2138)"
       transform="matrix(0,-0.53847145,-0.60460978,0,279.76505,250.97078)" />
    <path
       id="path2139"
       d="m 465.12,384.79999 c 0,-0.48 0,-0.96 0,-1.44"
       style="fill:none;stroke:#000000;stroke-width:0.16;stroke-linecap:round;stroke-linejoin:round;stroke-miterlimit:10;stroke-dasharray:none;stroke-opacity:1"
       clip-path="url(#clipPath2140)"
       transform="matrix(0,-0.53847145,-0.60460978,0,279.76505,250.97078)" />
    <path
       id="path2141"
       d="m 464.95999,384.79999 c 0,-15.52 0,-31.04 0,-46.56"
       style="fill:none;stroke:#000000;stroke-width:0.16;stroke-linecap:round;stroke-linejoin:round;stroke-miterlimit:10;stroke-dasharray:none;stroke-opacity:1"
       clip-path="url(#clipPath2142)"
       transform="matrix(0,-0.53847145,-0.60460978,0,279.76505,250.97078)" />
    <path
       id="path2159"
       d="m 452.95999,451.84 c 0,-57.6 0,-115.19999 0,-172.79999"
       style="fill:none;stroke:#000000;stroke-width:0.16;stroke-linecap:round;stroke-linejoin:round;stroke-miterlimit:10;stroke-dasharray:none;stroke-opacity:1"
       clip-path="url(#clipPath2160)"
       transform="matrix(0,-0.53847145,-0.60460978,0,279.76505,250.97078)" />
    <path
       id="path2199"
       d="m 464.95999,384.79999 c 0.17198,0 0.812,0 0.96002,0"
       style="fill:none;stroke:#000000;stroke-width:0.16;stroke-linecap:round;stroke-linejoin:round;stroke-miterlimit:10;stroke-dasharray:none;stroke-opacity:1"
       clip-path="url(#clipPath2200)"
       transform="matrix(0,-0.53847145,-0.60460978,0,279.76505,250.97078)" />
    <path
       id="path2531"
       d="m 464.95999,338.23999 c 0.17198,0 0.812,0 0.96002,0"
       style="fill:none;stroke:#000000;stroke-width:0.16;stroke-linecap:round;stroke-linejoin:round;stroke-miterlimit:10;stroke-dasharray:none;stroke-opacity:1"
       clip-path="url(#clipPath2532)"
       transform="matrix(0,-0.53847145,-0.60460978,0,279.76505,250.97078)" />
    <path
       id="path2587"
       d="m 452.95999,279.04001 c -48.90667,0 -97.81333,0 -146.72,0"
       style="fill:none;stroke:#000000;stroke-width:0.16;stroke-linecap:round;stroke-linejoin:round;stroke-miterlimit:10;stroke-dasharray:none;stroke-opacity:1"
       clip-path="url(#clipPath2588)"
       transform="matrix(0,-0.53847145,-0.60460978,0,279.76505,250.97078)" />
    <path
       id="path2665"
       d="m 464.16,268.48001 c -53.44,0 -106.88,0 -160.32,0"
       style="fill:none;stroke:#000000;stroke-width:0.16;stroke-linecap:round;stroke-linejoin:round;stroke-miterlimit:10;stroke-dasharray:none;stroke-opacity:1"
       clip-path="url(#clipPath2666)"
       transform="matrix(0,-0.53847145,-0.60460978,0,279.76505,250.97078)" />
    <path
       id="path2667"
       d="m 306.23999,279.04001 c 0,57.6 0,115.19999 0,172.79999"
       style="fill:none;stroke:#000000;stroke-width:0.32;stroke-linecap:round;stroke-linejoin:round;stroke-miterlimit:10;stroke-dasharray:none;stroke-opacity:1"
       clip-path="url(#clipPath2668)"
       transform="matrix(0,-0.53847145,-0.60460978,0,279.76505,250.97078)" />
    <path
       id="path2669"
       d="m 301.92001,270.07999 c 0,63.57333 0,127.14667 0,190.72"
       style="fill:none;stroke:#000000;stroke-width:0.32;stroke-linecap:round;stroke-linejoin:round;stroke-miterlimit:10;stroke-dasharray:none;stroke-opacity:1"
       clip-path="url(#clipPath2670)"
       transform="matrix(0,-0.53847145,-0.60460978,0,279.76505,250.97078)" />
    <path
       id="path5371"
       d="m 465.92001,337.44 c 0,-7.36 0,-14.72001 0,-22.08001"
       style="fill:none;stroke:#000000;stroke-width:0.16;stroke-linecap:round;stroke-linejoin:round;stroke-miterlimit:10;stroke-dasharray:none;stroke-opacity:1"
       clip-path="url(#clipPath5372)"
       transform="matrix(0,-0.53847145,-0.60460978,0,279.76505,250.97078)" />
  </g>
</svg>
