<?xml version="1.0" encoding="UTF-8" standalone="no"?>
<!-- Created with Inkscape (http://www.inkscape.org/) -->

<svg
   width="11.002mm"
   height="6.5mm"
   viewBox="0 0 11.002 6.5"
   version="1.1"
   id="svg1"
   inkscape:version="1.4.2 (ebf0e94, 2025-05-08)"
   sodipodi:docname="gns530_btn_template.svg"
   xmlns:inkscape="http://www.inkscape.org/namespaces/inkscape"
   xmlns:sodipodi="http://sodipodi.sourceforge.net/DTD/sodipodi-0.dtd"
   xmlns="http://www.w3.org/2000/svg"
   xmlns:svg="http://www.w3.org/2000/svg">
  <sodipodi:namedview
     id="namedview1"
     pagecolor="#ffffff"
     bordercolor="#000000"
     borderopacity="0.25"
     inkscape:showpageshadow="2"
     inkscape:pageopacity="0.0"
     inkscape:pagecheckerboard="0"
     inkscape:deskcolor="#d1d1d1"
     inkscape:document-units="mm"
     inkscape:zoom="8.1941057"
     inkscape:cx="46.374798"
     inkscape:cy="15.559965"
     inkscape:window-width="1920"
     inkscape:window-height="1094"
     inkscape:window-x="1909"
     inkscape:window-y="-11"
     inkscape:window-maximized="1"
     inkscape:current-layer="layer1" />
  <defs
     id="defs1" />
  <g
     inkscape:label="Layer 1"
     inkscape:groupmode="layer"
     id="layer1">
    <path
       inkscape:connector-curvature="0"
       style="display:inline;fill:none;fill-rule:evenodd;stroke:#ff0000;stroke-width:0.0976224;stroke-linecap:round;stroke-linejoin:round;stroke-miterlimit:4;stroke-dasharray:none;stroke-opacity:1;shape-rendering:crispEdges"
       d="m 1.3885131,0.21102593 a 1.4455329,1.457411 0 0 0 -1.33252497,1.43976557 175.22227,176.6621 0 0 0 0,3.197854 1.4455329,1.457411 0 0 0 1.33252497,1.4397646 52.626183,53.058619 0 0 0 8.223976,0 1.4455329,1.457411 0 0 0 1.3325229,-1.4397646 175.22227,176.6621 0 0 0 0,-3.197854 1.4455329,1.457411 0 0 0 -1.3325229,-1.43976557 52.626183,53.058619 0 0 0 -8.223976,0"
       id="Sketch046_w0015-9-2"
       inkscape:label="proc_btn_hole" />
  </g>
</svg>
